<?xml version="1.0" standalone="no"?>
<!DOCTYPE svg PUBLIC "-//W3C//DTD SVG 20010904//EN"
 "http://www.w3.org/TR/2001/REC-SVG-20010904/DTD/svg10.dtd">
<svg version="1.0" xmlns="http://www.w3.org/2000/svg"
 width="512.000000pt" height="512.000000pt" viewBox="0 0 512.000000 512.000000"
 preserveAspectRatio="xMidYMid meet">
<metadata>
Created by potrace 1.11, written by Peter Selinger 2001-2013
</metadata>
<g transform="translate(0.000000,512.000000) scale(0.100000,-0.100000)"
fill="#000000" stroke="none">
<path d="M2369 5116 c-2 -2 -38 -7 -78 -10 -41 -4 -78 -9 -81 -11 -3 -2 -33
-7 -65 -10 -109 -13 -389 -87 -490 -130 -26 -11 -60 -24 -75 -28 -3 0 -40 -18
-83 -39 -43 -21 -80 -38 -84 -38 -3 0 -28 -13 -54 -30 -27 -16 -49 -26 -49
-22 0 4 -4 2 -8 -4 -4 -6 -27 -22 -52 -35 -182 -97 -462 -331 -620 -519 -30
-36 -57 -67 -60 -70 -16 -14 -104 -136 -152 -210 -146 -223 -251 -455 -322
-705 -13 -49 -27 -101 -29 -115 -3 -14 -8 -36 -11 -50 -3 -14 -8 -36 -10 -50
-2 -14 -7 -36 -10 -50 -37 -163 -43 -600 -11 -785 2 -16 7 -43 9 -60 7 -45 25
-133 36 -174 5 -20 11 -45 13 -56 21 -121 175 -501 255 -627 9 -15 34 -56 56
-92 42 -71 154 -223 226 -306 212 -249 496 -470 793 -617 113 -56 325 -143
350 -143 7 0 17 -3 21 -8 4 -4 11 -7 14 -8 4 0 27 -6 52 -13 25 -7 52 -15 60
-17 34 -8 181 -42 185 -43 3 0 20 -2 38 -5 156 -26 219 -30 417 -31 232 0 315
7 510 46 127 25 135 27 135 29 0 1 11 4 25 6 43 8 287 93 358 125 687 311
1173 841 1407 1534 33 98 68 227 80 294 3 19 7 37 9 40 2 3 7 29 11 56 4 28 9
61 11 75 26 159 25 587 -2 711 -3 13 -7 38 -9 54 -22 190 -117 486 -224 705
-88 179 -232 405 -316 496 -5 6 -30 35 -55 64 -248 291 -581 528 -985 701 -98
41 -392 125 -475 135 -19 3 -42 6 -50 9 -8 2 -37 7 -65 10 -27 4 -61 9 -75 12
-28 5 -466 14 -471 9z"/>
</g>
</svg>
