<?xml version="1.0" standalone="no"?>
<!DOCTYPE svg PUBLIC "-//W3C//DTD SVG 20010904//EN"
 "http://www.w3.org/TR/2001/REC-SVG-20010904/DTD/svg10.dtd">
<svg version="1.0" xmlns="http://www.w3.org/2000/svg"
 width="512.000000pt" height="512.000000pt" viewBox="0 0 512.000000 512.000000"
 preserveAspectRatio="xMidYMid meet">
<metadata>
Created by potrace 1.11, written by Peter Selinger 2001-2013
</metadata>
<g transform="translate(0.000000,512.000000) scale(0.100000,-0.100000)"
fill="#000000" stroke="none">
<path d="M2270 5114 c-484 -60 -952 -257 -1330 -561 -109 -87 -286 -264 -373
-373 -221 -274 -399 -624 -486 -950 -69 -259 -76 -324 -76 -670 0 -346 7 -411
76 -670 87 -326 265 -676 486 -950 87 -109 264 -286 373 -373 204 -165 472
-318 715 -410 139 -53 334 -107 403 -112 26 -2 61 -6 77 -9 145 -28 401 -38
680 -27 167 7 442 69 650 148 339 128 654 332 910 588 375 375 613 834 717
1380 21 109 23 149 23 435 0 346 -7 411 -76 670 -87 326 -265 676 -486 950
-87 109 -264 286 -373 373 -274 221 -624 400 -950 486 -246 65 -318 74 -635
76 -159 2 -306 1 -325 -1z"/>
</g>
</svg>
